<?xml version="1.0" encoding="iso-8859-1"?>
<!-- Generator: Adobe Illustrator 17.1.0, SVG Export Plug-In . SVG Version: 6.00 Build 0)  -->
<!DOCTYPE svg PUBLIC "-//W3C//DTD SVG 1.1//EN" "http://www.w3.org/Graphics/SVG/1.1/DTD/svg11.dtd">
<svg xmlns="http://www.w3.org/2000/svg" xmlns:xlink="http://www.w3.org/1999/xlink" version="1.1" id="Capa_1" x="0px" y="0px" viewBox="0 0 489.679 489.679" style="enable-background:new 0 0 489.679 489.679;" xml:space="preserve" width="512px" height="512px">
<g>
	<path d="M243.537,76.178c20.629,0,37.412-16.783,37.412-37.412S264.166,1.354,243.537,1.354c-20.625,0-37.404,16.783-37.404,37.412   S222.912,76.178,243.537,76.178z" fill="#FFFFFF"/>
	<path d="M155.041,65.46c4.588,9.087,28.749,31.323,50.169,49.993l-0.03,155.059c-12.749,17.1-28.306,37.927-35.814,47.826   c-1.125,1.483-1.576,2.976-1.342,4.436c0.316,1.972,1.785,3.035,1.921,3.128l18.363,13.309l0.151,0.098   c0.769,0.438,1.62,0.67,2.459,0.67c0.676,0,1.34-0.154,1.823-0.422l29.906-20.064c1.834-1.231,4.012-1.883,6.297-1.883   c3.378,0,6.542,1.405,8.681,3.857l38.796,44.413c0.153,0.161,1.56,1.578,3.797,1.578c1.267,0,2.512-0.452,3.699-1.344   c11.232-8.43,31.291-23.915,41.326-32.02c1.395-1.127,2.179-2.429,2.33-3.871c0.206-1.954-0.875-3.351-0.959-3.451l-44.686-59.791   l-0.058-148.588c22.185-19.211,48.72-43.363,53.552-52.932c6.403-12.682,9.617-42.168,10.196-47.949   c0.876-8.734-5.518-16.553-14.252-17.43c-0.531-0.054-1.07-0.081-1.602-0.081c-8.203,0-15.009,6.16-15.83,14.33   c-1.347,13.381-4.311,31.032-6.779,36.444c-3.12,4.488-18.334,18.883-34.374,33.198h-55.099   c-16.037-14.313-31.249-28.705-34.372-33.197c-2.469-5.417-5.433-23.066-6.778-36.442C175.711,6.162,168.903,0,160.695,0   c-0.528,0-1.064,0.027-1.595,0.079c-8.735,0.877-15.13,8.696-14.255,17.433C145.426,23.296,148.645,52.791,155.041,65.46z    M248.378,233.366c-1.164-0.19-2.345-0.298-3.539-0.298c-2.084,0-4.127,0.304-6.107,0.876v-35.309h9.646V233.366z" fill="#FFFFFF"/>
	<path d="M427.82,462.181L340.014,344.7c-0.623-0.917-2.325-2.469-4.748-2.469c-1.548,0-3.134,0.616-4.712,1.831   c-10.965,8.439-43.904,34.042-44.234,34.299c-1.95,1.512-4.286,2.312-6.756,2.312c-3.196,0-6.231-1.376-8.324-3.774   c0,0-29.271-33.548-39.053-44.71c-1.393-1.591-2.919-1.925-3.952-1.925c-1.761,0-3.056,0.95-3.117,1l-27.16,18.227   c-2.025,1.358-4.584,2.106-7.206,2.106c-2.806,0-5.515-0.843-7.629-2.373c-0.159-0.115-15.968-11.538-21.184-15.354   c-0.563-0.41-1.206-0.628-1.863-0.628c-1.926,0-3.228,1.782-3.556,2.283L61.859,462.181c-5.337,7.14-6.814,13.988-4.161,19.285   c2.653,5.296,9.024,8.213,17.939,8.213h338.406c8.914,0,15.285-2.917,17.939-8.214C434.634,476.169,433.157,469.32,427.82,462.181z   " fill="#FFFFFF"/>
</g>
<g>
</g>
<g>
</g>
<g>
</g>
<g>
</g>
<g>
</g>
<g>
</g>
<g>
</g>
<g>
</g>
<g>
</g>
<g>
</g>
<g>
</g>
<g>
</g>
<g>
</g>
<g>
</g>
<g>
</g>
</svg>
