<?xml version="1.0" encoding="iso-8859-1"?>
<!-- Generator: Adobe Illustrator 16.0.0, SVG Export Plug-In . SVG Version: 6.00 Build 0)  -->
<!DOCTYPE svg PUBLIC "-//W3C//DTD SVG 1.1//EN" "http://www.w3.org/Graphics/SVG/1.1/DTD/svg11.dtd">
<svg xmlns="http://www.w3.org/2000/svg" xmlns:xlink="http://www.w3.org/1999/xlink" version="1.1" id="Capa_1" x="0px" y="0px" width="512px" height="512px" viewBox="0 0 94 94" style="enable-background:new 0 0 94 94;" xml:space="preserve">
<g>
	<path d="M47,0C21.042,0,0,21.043,0,47s21.042,47,47,47s47-21.043,47-47S72.958,0,47,0z M69.273,69.049   c-2.59,2.594-5.586,4.666-8.904,6.157l-2.33,1.052l-4.568-10.15l2.33-1.049c2.083-0.938,3.969-2.242,5.604-3.875   c3.57-3.572,5.535-8.328,5.535-13.39c0-5.065-1.967-9.821-5.535-13.389c-3.57-3.571-8.325-5.537-13.389-5.537   c-5.064,0-9.82,1.966-13.39,5.534c-6.503,6.506-7.326,16.581-2.311,23.98l8.017-8.017l-0.001,24.396H15.935l8.424-8.424   c-9.357-11.88-8.485-28.92,2.399-39.806c5.669-5.67,13.219-8.792,21.256-8.792c8.041,0,15.59,3.122,21.26,8.792   C80.995,38.256,80.996,57.328,69.273,69.049z" fill="#532b13"/>
</g>
<g>
</g>
<g>
</g>
<g>
</g>
<g>
</g>
<g>
</g>
<g>
</g>
<g>
</g>
<g>
</g>
<g>
</g>
<g>
</g>
<g>
</g>
<g>
</g>
<g>
</g>
<g>
</g>
<g>
</g>
</svg>
